<svg width="497" height="397" viewBox="0 0 497 397" fill="none" xmlns="http://www.w3.org/2000/svg">
<path fill-rule="evenodd" clip-rule="evenodd" d="M49.8897 222.537C49.8897 215.72 50.1016 220.073 49.8897 209.33C49.8023 204.952 50.0592 201.479 49.8897 197.177L50.1863 120.816L445.863 121.277L446.072 197.175C445.77 204.149 446.072 211.932 446.072 221.771C443.97 242.208 439.289 272.617 431.374 287.636C396.294 354.221 316.746 347.33 248.023 347.33C203.415 347.33 138.062 348.695 104.261 328.519C67.6762 306.683 49.8897 261.671 49.8897 223.409V222.537ZM222.044 69.0745C221.508 71.0742 215.613 71.0954 208.845 71.0742C204.017 71.0583 199.191 71.0133 194.357 71.0133L0 70.9312L0.961539 221.967C0.963202 245.668 8.1132 291.005 17.217 308.267C64.2964 397.549 144.096 396.384 241.833 396.384C309.666 396.386 370.23 401.313 422.726 369.798C466.704 343.398 494.789 280.269 494.789 231.047L496.047 70.9286C484 71.0769 284.415 74.2183 274.018 69.0558L273.844 1.87768C265.129 -0.628057 230.928 -0.622827 222.182 1.87497L222.044 69.0745Z" fill="#40FF00"/>
<path fill-rule="evenodd" clip-rule="evenodd" d="M127.871 250.3L196.371 250.382L196.882 181.074L128.337 181.14L127.871 250.3Z" fill="#40FF00"/>
<path fill-rule="evenodd" clip-rule="evenodd" d="M299.176 250.373L367.445 250.347L368.243 181.044L299.692 181.147L299.176 250.373Z" fill="#40FF00"/>
</svg>
